<svg width="301" height="82" viewBox="0 0 301 82" fill="none" xmlns="http://www.w3.org/2000/svg">
<rect width="301" height="82" rx="10" fill="#2E2F30"/>
<path d="M36.7489 28.6923C36.6807 21.8536 42.3298 18.5739 42.5822 18.4109C39.4081 13.7692 34.4635 13.1334 32.7016 13.0599C28.4936 12.6341 24.4908 15.5356 22.3552 15.5356C20.225 15.5356 16.9295 13.1228 13.4396 13.1862C8.85311 13.2544 4.62403 15.8513 2.26238 19.9563C-2.50295 28.2197 1.04202 40.4615 5.68661 47.1633C7.95613 50.4438 10.6624 54.1282 14.2156 53.9966C17.6373 53.8601 18.9312 51.7839 23.068 51.7839C27.2047 51.7839 28.3677 53.9966 31.9886 53.9287C35.6707 53.8603 38.0035 50.5854 40.2574 47.2949C42.8635 43.4892 43.9367 39.8046 44 39.6155C43.9182 39.5782 36.82 36.8608 36.7489 28.6923ZM29.945 8.62322C31.8309 6.33677 33.1038 3.16459 32.7566 0C30.0401 0.110531 26.7473 1.80826 24.7983 4.08955C23.0496 6.11328 21.5187 9.34326 21.9289 12.4446C24.9615 12.681 28.0571 10.9045 29.945 8.62322Z" transform="translate(21 14)" fill="white"/>
<path d="M1.302 13V3.06H4.606C5.39 3.06 6.076 3.19067 6.664 3.452C7.26133 3.71333 7.756 4.068 8.148 4.516C8.54 4.964 8.834 5.49133 9.03 6.098C9.226 6.69533 9.324 7.33467 9.324 8.016C9.324 8.772 9.212 9.458 8.988 10.074C8.77333 10.6807 8.46067 11.2033 8.05 11.642C7.63933 12.0713 7.14 12.4073 6.552 12.65C5.97333 12.8833 5.32467 13 4.606 13H1.302ZM8.61 8.016C8.61 7.39067 8.52133 6.81667 8.344 6.294C8.16667 5.762 7.90533 5.30467 7.56 4.922C7.224 4.53933 6.80867 4.24067 6.314 4.026C5.81933 3.81133 5.25 3.704 4.606 3.704H2.016V12.356H4.606C5.25933 12.356 5.83333 12.2487 6.328 12.034C6.832 11.81 7.252 11.502 7.588 11.11C7.924 10.718 8.176 10.2607 8.344 9.738C8.52133 9.206 8.61 8.632 8.61 8.016ZM15.2445 13.07C14.5538 13.07 13.9238 12.9253 13.3545 12.636C12.7851 12.3467 12.2951 11.9687 11.8845 11.502C11.4738 11.0353 11.1565 10.4987 10.9325 9.892C10.7085 9.28533 10.5965 8.66467 10.5965 8.03C10.5965 7.36733 10.7131 6.73267 10.9465 6.126C11.1891 5.51933 11.5158 4.98267 11.9265 4.516C12.3465 4.04933 12.8411 3.68067 13.4105 3.41C13.9798 3.13 14.5958 2.99 15.2585 2.99C15.9491 2.99 16.5791 3.13933 17.1485 3.438C17.7271 3.72733 18.2171 4.11 18.6185 4.586C19.0291 5.062 19.3465 5.60333 19.5705 6.21C19.7945 6.80733 19.9065 7.414 19.9065 8.03C19.9065 8.702 19.7851 9.34133 19.5425 9.948C19.3091 10.5547 18.9825 11.0913 18.5625 11.558C18.1518 12.0153 17.6618 12.384 17.0925 12.664C16.5231 12.9347 15.9071 13.07 15.2445 13.07ZM11.3105 8.03C11.3105 8.59933 11.4038 9.15 11.5905 9.682C11.7865 10.2047 12.0571 10.6713 12.4025 11.082C12.7571 11.4833 13.1771 11.8053 13.6625 12.048C14.1478 12.2907 14.6798 12.412 15.2585 12.412C15.8558 12.412 16.3925 12.286 16.8685 12.034C17.3538 11.782 17.7645 11.4507 18.1005 11.04C18.4458 10.62 18.7118 10.1487 18.8985 9.626C19.0851 9.10333 19.1785 8.57133 19.1785 8.03C19.1785 7.46067 19.0805 6.91467 18.8845 6.392C18.6885 5.86 18.4131 5.39333 18.0585 4.992C17.7131 4.58133 17.3025 4.25467 16.8265 4.012C16.3505 3.76933 15.8278 3.648 15.2585 3.648C14.6611 3.648 14.1198 3.774 13.6345 4.026C13.1491 4.278 12.7338 4.614 12.3885 5.034C12.0431 5.44467 11.7771 5.91133 11.5905 6.434C11.4038 6.95667 11.3105 7.48867 11.3105 8.03ZM25.2623 3.13H25.9623L27.4463 6.742L28.9303 3.13H29.6303L27.8803 7.316L29.9663 12.16L33.7743 3.06H34.5583L30.3023 13H29.6443L27.4603 7.89L25.2623 13H24.6043L20.3623 3.06H21.1323L24.9543 12.16L27.0123 7.316L25.2623 3.13ZM36.7699 4.404V13H36.0559V3.06H36.6019L43.5739 11.81V3.06H44.2879V13H43.6299L36.7699 4.404ZM46.884 13V3.06H47.598V12.356H53.534V13H46.884ZM58.3519 13.07C57.6612 13.07 57.0312 12.9253 56.4619 12.636C55.8926 12.3467 55.4026 11.9687 54.9919 11.502C54.5812 11.0353 54.2639 10.4987 54.0399 9.892C53.8159 9.28533 53.7039 8.66467 53.7039 8.03C53.7039 7.36733 53.8206 6.73267 54.0539 6.126C54.2966 5.51933 54.6232 4.98267 55.0339 4.516C55.4539 4.04933 55.9486 3.68067 56.5179 3.41C57.0872 3.13 57.7032 2.99 58.3659 2.99C59.0566 2.99 59.6866 3.13933 60.2559 3.438C60.8346 3.72733 61.3246 4.11 61.7259 4.586C62.1366 5.062 62.4539 5.60333 62.6779 6.21C62.9019 6.80733 63.0139 7.414 63.0139 8.03C63.0139 8.702 62.8926 9.34133 62.6499 9.948C62.4166 10.5547 62.0899 11.0913 61.6699 11.558C61.2592 12.0153 60.7692 12.384 60.1999 12.664C59.6306 12.9347 59.0146 13.07 58.3519 13.07ZM54.4179 8.03C54.4179 8.59933 54.5112 9.15 54.6979 9.682C54.8939 10.2047 55.1646 10.6713 55.5099 11.082C55.8646 11.4833 56.2846 11.8053 56.7699 12.048C57.2552 12.2907 57.7872 12.412 58.3659 12.412C58.9632 12.412 59.4999 12.286 59.9759 12.034C60.4612 11.782 60.8719 11.4507 61.2079 11.04C61.5532 10.62 61.8192 10.1487 62.0059 9.626C62.1926 9.10333 62.2859 8.57133 62.2859 8.03C62.2859 7.46067 62.1879 6.91467 61.9919 6.392C61.7959 5.86 61.5206 5.39333 61.1659 4.992C60.8206 4.58133 60.4099 4.25467 59.9339 4.012C59.4579 3.76933 58.9352 3.648 58.3659 3.648C57.7686 3.648 57.2272 3.774 56.7419 4.026C56.2566 4.278 55.8412 4.614 55.4959 5.034C55.1506 5.44467 54.8846 5.91133 54.6979 6.434C54.5112 6.95667 54.4179 7.48867 54.4179 8.03ZM67.6974 3.06H68.3134L72.5134 13H71.7574L70.3714 9.724H65.6254L64.2394 13H63.4694L67.6974 3.06ZM70.1754 9.136L68.0054 3.928L65.7934 9.136H70.1754ZM74.0227 13V3.06H77.3267C78.1107 3.06 78.7967 3.19067 79.3847 3.452C79.982 3.71333 80.4767 4.068 80.8687 4.516C81.2607 4.964 81.5547 5.49133 81.7507 6.098C81.9467 6.69533 82.0447 7.33467 82.0447 8.016C82.0447 8.772 81.9327 9.458 81.7087 10.074C81.494 10.6807 81.1814 11.2033 80.7707 11.642C80.36 12.0713 79.8607 12.4073 79.2727 12.65C78.694 12.8833 78.0454 13 77.3267 13H74.0227ZM81.3307 8.016C81.3307 7.39067 81.242 6.81667 81.0647 6.294C80.8874 5.762 80.626 5.30467 80.2807 4.922C79.9447 4.53933 79.5294 4.24067 79.0347 4.026C78.54 3.81133 77.9707 3.704 77.3267 3.704H74.7367V12.356H77.3267C77.98 12.356 78.554 12.2487 79.0487 12.034C79.5527 11.81 79.9727 11.502 80.3087 11.11C80.6447 10.718 80.8967 10.2607 81.0647 9.738C81.242 9.206 81.3307 8.632 81.3307 8.016ZM87.5989 13V3.06H94.0669V3.704H88.3129V7.652H93.1989V8.268H88.3129V13H87.5989ZM95.9114 13V3.06H100.041C100.461 3.06 100.849 3.14867 101.203 3.326C101.558 3.50333 101.861 3.74133 102.113 4.04C102.375 4.32933 102.575 4.66067 102.715 5.034C102.865 5.398 102.939 5.76667 102.939 6.14C102.939 6.504 102.883 6.85867 102.771 7.204C102.659 7.54 102.501 7.84333 102.295 8.114C102.09 8.38467 101.843 8.60867 101.553 8.786C101.264 8.96333 100.947 9.08 100.601 9.136L103.079 13H102.253L99.8454 9.248H96.6254V13H95.9114ZM96.6254 8.59H100.111C100.429 8.59 100.718 8.52 100.979 8.38C101.241 8.24 101.465 8.058 101.651 7.834C101.838 7.60067 101.978 7.33933 102.071 7.05C102.174 6.75133 102.225 6.448 102.225 6.14C102.225 5.82267 102.165 5.51933 102.043 5.23C101.931 4.93133 101.773 4.67 101.567 4.446C101.371 4.222 101.138 4.04467 100.867 3.914C100.606 3.774 100.321 3.704 100.013 3.704H96.6254V8.59ZM108.965 13.07C108.275 13.07 107.645 12.9253 107.075 12.636C106.506 12.3467 106.016 11.9687 105.605 11.502C105.195 11.0353 104.877 10.4987 104.653 9.892C104.429 9.28533 104.317 8.66467 104.317 8.03C104.317 7.36733 104.434 6.73267 104.667 6.126C104.91 5.51933 105.237 4.98267 105.647 4.516C106.067 4.04933 106.562 3.68067 107.131 3.41C107.701 3.13 108.317 2.99 108.979 2.99C109.67 2.99 110.3 3.13933 110.869 3.438C111.448 3.72733 111.938 4.11 112.339 4.586C112.75 5.062 113.067 5.60333 113.291 6.21C113.515 6.80733 113.627 7.414 113.627 8.03C113.627 8.702 113.506 9.34133 113.263 9.948C113.03 10.5547 112.703 11.0913 112.283 11.558C111.873 12.0153 111.383 12.384 110.813 12.664C110.244 12.9347 109.628 13.07 108.965 13.07ZM105.031 8.03C105.031 8.59933 105.125 9.15 105.311 9.682C105.507 10.2047 105.778 10.6713 106.123 11.082C106.478 11.4833 106.898 11.8053 107.383 12.048C107.869 12.2907 108.401 12.412 108.979 12.412C109.577 12.412 110.113 12.286 110.589 12.034C111.075 11.782 111.485 11.4507 111.821 11.04C112.167 10.62 112.433 10.1487 112.619 9.626C112.806 9.10333 112.899 8.57133 112.899 8.03C112.899 7.46067 112.801 6.91467 112.605 6.392C112.409 5.86 112.134 5.39333 111.779 4.992C111.434 4.58133 111.023 4.25467 110.547 4.012C110.071 3.76933 109.549 3.648 108.979 3.648C108.382 3.648 107.841 3.774 107.355 4.026C106.87 4.278 106.455 4.614 106.109 5.034C105.764 5.44467 105.498 5.91133 105.311 6.434C105.125 6.95667 105.031 7.48867 105.031 8.03ZM124.546 13V4.404L120.626 11.11H120.178L116.258 4.404V13H115.544V3.06H116.258L120.402 10.172L124.546 3.06H125.26V13H124.546Z" transform="translate(106 21)" fill="white"/>
<path d="M3.864 3.06H5.572L9.352 13H7.364L6.44 10.522H2.968L2.058 13H0.07L3.864 3.06ZM6.09 9.164L4.718 5.258L3.29 9.164H6.09ZM11.0023 13V3.06H15.2163C15.6736 3.06 16.0936 3.158 16.4763 3.354C16.8683 3.54067 17.2043 3.79267 17.4843 4.11C17.7643 4.418 17.9836 4.77267 18.1423 5.174C18.3009 5.566 18.3803 5.96267 18.3803 6.364C18.3803 6.784 18.3056 7.19467 18.1563 7.596C18.0069 7.988 17.7969 8.338 17.5263 8.646C17.2556 8.954 16.9289 9.20133 16.5463 9.388C16.1636 9.57467 15.7436 9.668 15.2863 9.668H12.9343V13H11.0023ZM12.9343 7.974H15.1743C15.5289 7.974 15.8229 7.82933 16.0563 7.54C16.2989 7.25067 16.4203 6.85867 16.4203 6.364C16.4203 6.112 16.3829 5.888 16.3083 5.692C16.2336 5.48667 16.1356 5.314 16.0143 5.174C15.8929 5.034 15.7483 4.93133 15.5803 4.866C15.4216 4.79133 15.2583 4.754 15.0903 4.754H12.9343V7.974ZM20.2849 13V3.06H24.4989C24.9562 3.06 25.3762 3.158 25.7589 3.354C26.1509 3.54067 26.4869 3.79267 26.7669 4.11C27.0469 4.418 27.2662 4.77267 27.4249 5.174C27.5836 5.566 27.6629 5.96267 27.6629 6.364C27.6629 6.784 27.5882 7.19467 27.4389 7.596C27.2896 7.988 27.0796 8.338 26.8089 8.646C26.5382 8.954 26.2116 9.20133 25.8289 9.388C25.4462 9.57467 25.0262 9.668 24.5689 9.668H22.2169V13H20.2849ZM22.2169 7.974H24.4569C24.8116 7.974 25.1056 7.82933 25.3389 7.54C25.5816 7.25067 25.7029 6.85867 25.7029 6.364C25.7029 6.112 25.6656 5.888 25.5909 5.692C25.5162 5.48667 25.4182 5.314 25.2969 5.174C25.1756 5.034 25.0309 4.93133 24.8629 4.866C24.7042 4.79133 24.5409 4.754 24.3729 4.754H22.2169V7.974ZM29.5676 13V3.06H31.4996V11.306H36.5676V13H29.5676ZM45.2053 11.306V13H38.3033V3.06H45.0793V4.754H40.2353V7.148H44.4213V8.716H40.2353V11.306H45.2053ZM53.5853 3.06H55.2933L59.0733 13H57.0853L56.1613 10.522H52.6893L51.7793 13H49.7913L53.5853 3.06ZM55.8113 9.164L54.4393 5.258L53.0113 9.164H55.8113ZM60.7236 13V3.06H64.9376C65.3949 3.06 65.8149 3.158 66.1976 3.354C66.5896 3.54067 66.9256 3.79267 67.2056 4.11C67.4856 4.418 67.7049 4.77267 67.8636 5.174C68.0222 5.566 68.1016 5.96267 68.1016 6.364C68.1016 6.784 68.0269 7.19467 67.8776 7.596C67.7282 7.988 67.5182 8.338 67.2476 8.646C66.9769 8.954 66.6502 9.20133 66.2676 9.388C65.8849 9.57467 65.4649 9.668 65.0076 9.668H62.6556V13H60.7236ZM62.6556 7.974H64.8956C65.2502 7.974 65.5442 7.82933 65.7776 7.54C66.0202 7.25067 66.1416 6.85867 66.1416 6.364C66.1416 6.112 66.1042 5.888 66.0296 5.692C65.9549 5.48667 65.8569 5.314 65.7356 5.174C65.6142 5.034 65.4696 4.93133 65.3016 4.866C65.1429 4.79133 64.9796 4.754 64.8116 4.754H62.6556V7.974ZM70.0062 13V3.06H74.2202C74.6776 3.06 75.0976 3.158 75.4802 3.354C75.8722 3.54067 76.2082 3.79267 76.4882 4.11C76.7682 4.418 76.9876 4.77267 77.1462 5.174C77.3049 5.566 77.3842 5.96267 77.3842 6.364C77.3842 6.784 77.3096 7.19467 77.1602 7.596C77.0109 7.988 76.8009 8.338 76.5302 8.646C76.2596 8.954 75.9329 9.20133 75.5502 9.388C75.1676 9.57467 74.7476 9.668 74.2902 9.668H71.9382V13H70.0062ZM71.9382 7.974H74.1782C74.5329 7.974 74.8269 7.82933 75.0602 7.54C75.3029 7.25067 75.4242 6.85867 75.4242 6.364C75.4242 6.112 75.3869 5.888 75.3122 5.692C75.2376 5.48667 75.1396 5.314 75.0182 5.174C74.8969 5.034 74.7522 4.93133 74.5842 4.866C74.4256 4.79133 74.2622 4.754 74.0942 4.754H71.9382V7.974ZM88.7514 5.664C88.686 5.59867 88.5647 5.51 88.3874 5.398C88.2194 5.286 88.0094 5.17867 87.7574 5.076C87.5147 4.964 87.2487 4.87067 86.9594 4.796C86.67 4.72133 86.376 4.684 86.0774 4.684C85.5454 4.684 85.1487 4.782 84.8874 4.978C84.626 5.174 84.4954 5.44933 84.4954 5.804C84.4954 6.00933 84.542 6.182 84.6354 6.322C84.738 6.45267 84.8827 6.56933 85.0694 6.672C85.256 6.77467 85.4894 6.868 85.7694 6.952C86.0587 7.036 86.39 7.12467 86.7634 7.218C87.2487 7.34867 87.6874 7.48867 88.0794 7.638C88.4807 7.78733 88.8167 7.974 89.0874 8.198C89.3674 8.422 89.582 8.69267 89.7314 9.01C89.8807 9.318 89.9554 9.70067 89.9554 10.158C89.9554 10.69 89.8527 11.1473 89.6474 11.53C89.4514 11.9033 89.1807 12.2067 88.8354 12.44C88.4994 12.6733 88.1074 12.846 87.6594 12.958C87.2207 13.0607 86.7587 13.112 86.2734 13.112C85.5267 13.112 84.7894 13 84.0614 12.776C83.3334 12.552 82.68 12.2347 82.1014 11.824L82.9554 10.158C83.0394 10.242 83.1887 10.354 83.4034 10.494C83.6274 10.6247 83.8887 10.76 84.1874 10.9C84.486 11.0307 84.8174 11.1427 85.1814 11.236C85.5454 11.3293 85.9187 11.376 86.3014 11.376C87.3654 11.376 87.8974 11.0353 87.8974 10.354C87.8974 10.1393 87.8367 9.95733 87.7154 9.808C87.594 9.65867 87.4214 9.528 87.1974 9.416C86.9734 9.304 86.7027 9.20133 86.3854 9.108C86.068 9.01467 85.7134 8.912 85.3214 8.8C84.8454 8.66933 84.43 8.52933 84.0754 8.38C83.73 8.22133 83.4407 8.03933 83.2074 7.834C82.974 7.61933 82.7967 7.37667 82.6754 7.106C82.5634 6.826 82.5074 6.49467 82.5074 6.112C82.5074 5.608 82.6007 5.16 82.7874 4.768C82.974 4.376 83.2307 4.04933 83.5574 3.788C83.8934 3.52667 84.2807 3.33067 84.7194 3.2C85.158 3.06 85.6294 2.99 86.1334 2.99C86.8334 2.99 87.4774 3.102 88.0654 3.326C88.6534 3.54067 89.1667 3.79733 89.6054 4.096L88.7514 5.664ZM99.3409 4.754H96.1629V13H94.2449V4.754H91.0669V3.06H99.3409V4.754ZM104.912 13.07C104.184 13.07 103.521 12.93 102.924 12.65C102.336 12.3607 101.827 11.9827 101.398 11.516C100.978 11.04 100.651 10.4987 100.418 9.892C100.185 9.28533 100.068 8.66467 100.068 8.03C100.068 7.36733 100.189 6.73267 100.432 6.126C100.684 5.51933 101.025 4.98267 101.454 4.516C101.893 4.04933 102.411 3.68067 103.008 3.41C103.605 3.13 104.254 2.99 104.954 2.99C105.673 2.99 106.326 3.13933 106.914 3.438C107.511 3.72733 108.02 4.11 108.44 4.586C108.86 5.062 109.187 5.60333 109.42 6.21C109.653 6.81667 109.77 7.43267 109.77 8.058C109.77 8.72067 109.649 9.35533 109.406 9.962C109.163 10.5593 108.827 11.0913 108.398 11.558C107.969 12.0153 107.455 12.384 106.858 12.664C106.261 12.9347 105.612 13.07 104.912 13.07ZM102.028 8.03C102.028 8.45933 102.093 8.87467 102.224 9.276C102.355 9.67733 102.541 10.032 102.784 10.34C103.036 10.648 103.339 10.8953 103.694 11.082C104.058 11.2687 104.469 11.362 104.926 11.362C105.393 11.362 105.803 11.2687 106.158 11.082C106.522 10.886 106.825 10.6293 107.068 10.312C107.32 9.99467 107.507 9.64 107.628 9.248C107.759 8.84667 107.824 8.44067 107.824 8.03C107.824 7.60067 107.754 7.18533 107.614 6.784C107.483 6.38267 107.292 6.028 107.04 5.72C106.797 5.412 106.494 5.16933 106.13 4.992C105.775 4.80533 105.374 4.712 104.926 4.712C104.459 4.712 104.044 4.81 103.68 5.006C103.316 5.19267 103.013 5.44467 102.77 5.762C102.527 6.07 102.341 6.42467 102.21 6.826C102.089 7.218 102.028 7.61933 102.028 8.03ZM111.812 13V3.06H116.208C116.665 3.06 117.085 3.158 117.468 3.354C117.86 3.54067 118.196 3.79267 118.476 4.11C118.756 4.418 118.975 4.77267 119.134 5.174C119.293 5.566 119.372 5.96267 119.372 6.364C119.372 7.008 119.209 7.596 118.882 8.128C118.565 8.65067 118.131 9.02867 117.58 9.262L119.848 13H117.678L115.648 9.668H113.744V13H111.812ZM113.744 7.974H116.166C116.343 7.974 116.507 7.932 116.656 7.848C116.815 7.764 116.95 7.652 117.062 7.512C117.174 7.36267 117.263 7.19 117.328 6.994C117.393 6.798 117.426 6.588 117.426 6.364C117.426 6.13067 117.389 5.916 117.314 5.72C117.239 5.524 117.137 5.356 117.006 5.216C116.885 5.06667 116.74 4.95467 116.572 4.88C116.413 4.796 116.25 4.754 116.082 4.754H113.744V7.974ZM128.585 11.306V13H121.683V3.06H128.459V4.754H123.615V7.148H127.801V8.716H123.615V11.306H128.585Z" transform="translate(106 42)" fill="white"/>
</svg>
