<svg width="301" height="82" viewBox="0 0 301 82" fill="none" xmlns="http://www.w3.org/2000/svg">
<rect width="301" height="82" rx="10" fill="#2E2F30"/>
<path d="M1.302 13V3.06H4.606C5.39 3.06 6.076 3.19067 6.664 3.452C7.26133 3.71333 7.756 4.068 8.148 4.516C8.54 4.964 8.834 5.49133 9.03 6.098C9.226 6.69533 9.324 7.33467 9.324 8.016C9.324 8.772 9.212 9.458 8.988 10.074C8.77333 10.6807 8.46067 11.2033 8.05 11.642C7.63933 12.0713 7.14 12.4073 6.552 12.65C5.97333 12.8833 5.32467 13 4.606 13H1.302ZM8.61 8.016C8.61 7.39067 8.52133 6.81667 8.344 6.294C8.16667 5.762 7.90533 5.30467 7.56 4.922C7.224 4.53933 6.80867 4.24067 6.314 4.026C5.81933 3.81133 5.25 3.704 4.606 3.704H2.016V12.356H4.606C5.25933 12.356 5.83333 12.2487 6.328 12.034C6.832 11.81 7.252 11.502 7.588 11.11C7.924 10.718 8.176 10.2607 8.344 9.738C8.52133 9.206 8.61 8.632 8.61 8.016ZM15.2445 13.07C14.5538 13.07 13.9238 12.9253 13.3545 12.636C12.7851 12.3467 12.2951 11.9687 11.8845 11.502C11.4738 11.0353 11.1565 10.4987 10.9325 9.892C10.7085 9.28533 10.5965 8.66467 10.5965 8.03C10.5965 7.36733 10.7131 6.73267 10.9465 6.126C11.1891 5.51933 11.5158 4.98267 11.9265 4.516C12.3465 4.04933 12.8411 3.68067 13.4105 3.41C13.9798 3.13 14.5958 2.99 15.2585 2.99C15.9491 2.99 16.5791 3.13933 17.1485 3.438C17.7271 3.72733 18.2171 4.11 18.6185 4.586C19.0291 5.062 19.3465 5.60333 19.5705 6.21C19.7945 6.80733 19.9065 7.414 19.9065 8.03C19.9065 8.702 19.7851 9.34133 19.5425 9.948C19.3091 10.5547 18.9825 11.0913 18.5625 11.558C18.1518 12.0153 17.6618 12.384 17.0925 12.664C16.5231 12.9347 15.9071 13.07 15.2445 13.07ZM11.3105 8.03C11.3105 8.59933 11.4038 9.15 11.5905 9.682C11.7865 10.2047 12.0571 10.6713 12.4025 11.082C12.7571 11.4833 13.1771 11.8053 13.6625 12.048C14.1478 12.2907 14.6798 12.412 15.2585 12.412C15.8558 12.412 16.3925 12.286 16.8685 12.034C17.3538 11.782 17.7645 11.4507 18.1005 11.04C18.4458 10.62 18.7118 10.1487 18.8985 9.626C19.0851 9.10333 19.1785 8.57133 19.1785 8.03C19.1785 7.46067 19.0805 6.91467 18.8845 6.392C18.6885 5.86 18.4131 5.39333 18.0585 4.992C17.7131 4.58133 17.3025 4.25467 16.8265 4.012C16.3505 3.76933 15.8278 3.648 15.2585 3.648C14.6611 3.648 14.1198 3.774 13.6345 4.026C13.1491 4.278 12.7338 4.614 12.3885 5.034C12.0431 5.44467 11.7771 5.91133 11.5905 6.434C11.4038 6.95667 11.3105 7.48867 11.3105 8.03ZM25.2623 3.13H25.9623L27.4463 6.742L28.9303 3.13H29.6303L27.8803 7.316L29.9663 12.16L33.7743 3.06H34.5583L30.3023 13H29.6443L27.4603 7.89L25.2623 13H24.6043L20.3623 3.06H21.1323L24.9543 12.16L27.0123 7.316L25.2623 3.13ZM36.7699 4.404V13H36.0559V3.06H36.6019L43.5739 11.81V3.06H44.2879V13H43.6299L36.7699 4.404ZM46.884 13V3.06H47.598V12.356H53.534V13H46.884ZM58.3519 13.07C57.6612 13.07 57.0312 12.9253 56.4619 12.636C55.8926 12.3467 55.4026 11.9687 54.9919 11.502C54.5812 11.0353 54.2639 10.4987 54.0399 9.892C53.8159 9.28533 53.7039 8.66467 53.7039 8.03C53.7039 7.36733 53.8206 6.73267 54.0539 6.126C54.2966 5.51933 54.6232 4.98267 55.0339 4.516C55.4539 4.04933 55.9486 3.68067 56.5179 3.41C57.0872 3.13 57.7032 2.99 58.3659 2.99C59.0566 2.99 59.6866 3.13933 60.2559 3.438C60.8346 3.72733 61.3246 4.11 61.7259 4.586C62.1366 5.062 62.4539 5.60333 62.6779 6.21C62.9019 6.80733 63.0139 7.414 63.0139 8.03C63.0139 8.702 62.8926 9.34133 62.6499 9.948C62.4166 10.5547 62.0899 11.0913 61.6699 11.558C61.2592 12.0153 60.7692 12.384 60.1999 12.664C59.6306 12.9347 59.0146 13.07 58.3519 13.07ZM54.4179 8.03C54.4179 8.59933 54.5112 9.15 54.6979 9.682C54.8939 10.2047 55.1646 10.6713 55.5099 11.082C55.8646 11.4833 56.2846 11.8053 56.7699 12.048C57.2552 12.2907 57.7872 12.412 58.3659 12.412C58.9632 12.412 59.4999 12.286 59.9759 12.034C60.4612 11.782 60.8719 11.4507 61.2079 11.04C61.5532 10.62 61.8192 10.1487 62.0059 9.626C62.1926 9.10333 62.2859 8.57133 62.2859 8.03C62.2859 7.46067 62.1879 6.91467 61.9919 6.392C61.7959 5.86 61.5206 5.39333 61.1659 4.992C60.8206 4.58133 60.4099 4.25467 59.9339 4.012C59.4579 3.76933 58.9352 3.648 58.3659 3.648C57.7686 3.648 57.2272 3.774 56.7419 4.026C56.2566 4.278 55.8412 4.614 55.4959 5.034C55.1506 5.44467 54.8846 5.91133 54.6979 6.434C54.5112 6.95667 54.4179 7.48867 54.4179 8.03ZM67.6974 3.06H68.3134L72.5134 13H71.7574L70.3714 9.724H65.6254L64.2394 13H63.4694L67.6974 3.06ZM70.1754 9.136L68.0054 3.928L65.7934 9.136H70.1754ZM74.0227 13V3.06H77.3267C78.1107 3.06 78.7967 3.19067 79.3847 3.452C79.982 3.71333 80.4767 4.068 80.8687 4.516C81.2607 4.964 81.5547 5.49133 81.7507 6.098C81.9467 6.69533 82.0447 7.33467 82.0447 8.016C82.0447 8.772 81.9327 9.458 81.7087 10.074C81.494 10.6807 81.1814 11.2033 80.7707 11.642C80.36 12.0713 79.8607 12.4073 79.2727 12.65C78.694 12.8833 78.0454 13 77.3267 13H74.0227ZM81.3307 8.016C81.3307 7.39067 81.242 6.81667 81.0647 6.294C80.8874 5.762 80.626 5.30467 80.2807 4.922C79.9447 4.53933 79.5294 4.24067 79.0347 4.026C78.54 3.81133 77.9707 3.704 77.3267 3.704H74.7367V12.356H77.3267C77.98 12.356 78.554 12.2487 79.0487 12.034C79.5527 11.81 79.9727 11.502 80.3087 11.11C80.6447 10.718 80.8967 10.2607 81.0647 9.738C81.242 9.206 81.3307 8.632 81.3307 8.016ZM87.5989 13V3.06H94.0669V3.704H88.3129V7.652H93.1989V8.268H88.3129V13H87.5989ZM95.9114 13V3.06H100.041C100.461 3.06 100.849 3.14867 101.203 3.326C101.558 3.50333 101.861 3.74133 102.113 4.04C102.375 4.32933 102.575 4.66067 102.715 5.034C102.865 5.398 102.939 5.76667 102.939 6.14C102.939 6.504 102.883 6.85867 102.771 7.204C102.659 7.54 102.501 7.84333 102.295 8.114C102.09 8.38467 101.843 8.60867 101.553 8.786C101.264 8.96333 100.947 9.08 100.601 9.136L103.079 13H102.253L99.8454 9.248H96.6254V13H95.9114ZM96.6254 8.59H100.111C100.429 8.59 100.718 8.52 100.979 8.38C101.241 8.24 101.465 8.058 101.651 7.834C101.838 7.60067 101.978 7.33933 102.071 7.05C102.174 6.75133 102.225 6.448 102.225 6.14C102.225 5.82267 102.165 5.51933 102.043 5.23C101.931 4.93133 101.773 4.67 101.567 4.446C101.371 4.222 101.138 4.04467 100.867 3.914C100.606 3.774 100.321 3.704 100.013 3.704H96.6254V8.59ZM108.965 13.07C108.275 13.07 107.645 12.9253 107.075 12.636C106.506 12.3467 106.016 11.9687 105.605 11.502C105.195 11.0353 104.877 10.4987 104.653 9.892C104.429 9.28533 104.317 8.66467 104.317 8.03C104.317 7.36733 104.434 6.73267 104.667 6.126C104.91 5.51933 105.237 4.98267 105.647 4.516C106.067 4.04933 106.562 3.68067 107.131 3.41C107.701 3.13 108.317 2.99 108.979 2.99C109.67 2.99 110.3 3.13933 110.869 3.438C111.448 3.72733 111.938 4.11 112.339 4.586C112.75 5.062 113.067 5.60333 113.291 6.21C113.515 6.80733 113.627 7.414 113.627 8.03C113.627 8.702 113.506 9.34133 113.263 9.948C113.03 10.5547 112.703 11.0913 112.283 11.558C111.873 12.0153 111.383 12.384 110.813 12.664C110.244 12.9347 109.628 13.07 108.965 13.07ZM105.031 8.03C105.031 8.59933 105.125 9.15 105.311 9.682C105.507 10.2047 105.778 10.6713 106.123 11.082C106.478 11.4833 106.898 11.8053 107.383 12.048C107.869 12.2907 108.401 12.412 108.979 12.412C109.577 12.412 110.113 12.286 110.589 12.034C111.075 11.782 111.485 11.4507 111.821 11.04C112.167 10.62 112.433 10.1487 112.619 9.626C112.806 9.10333 112.899 8.57133 112.899 8.03C112.899 7.46067 112.801 6.91467 112.605 6.392C112.409 5.86 112.134 5.39333 111.779 4.992C111.434 4.58133 111.023 4.25467 110.547 4.012C110.071 3.76933 109.549 3.648 108.979 3.648C108.382 3.648 107.841 3.774 107.355 4.026C106.87 4.278 106.455 4.614 106.109 5.034C105.764 5.44467 105.498 5.91133 105.311 6.434C105.125 6.95667 105.031 7.48867 105.031 8.03ZM124.546 13V4.404L120.626 11.11H120.178L116.258 4.404V13H115.544V3.06H116.258L120.402 10.172L124.546 3.06H125.26V13H124.546Z" transform="translate(111 18)" fill="white"/>
<path d="M7.938 11.88C7.14467 12.6733 6.22067 13.07 5.166 13.07C4.51267 13.07 3.89667 12.9393 3.318 12.678C2.74867 12.4167 2.24933 12.0573 1.82 11.6C1.4 11.1427 1.064 10.606 0.812 9.99C0.569333 9.36467 0.448 8.69267 0.448 7.974C0.448 7.29267 0.569333 6.65333 0.812 6.056C1.064 5.44933 1.40467 4.922 1.834 4.474C2.27267 4.01667 2.786 3.65733 3.374 3.396C3.962 3.12533 4.60133 2.99 5.292 2.99C6.22533 2.99 7.02333 3.186 7.686 3.578C8.358 3.97 8.862 4.49733 9.198 5.16L7.756 6.224C7.504 5.72933 7.14933 5.35133 6.692 5.09C6.244 4.82867 5.754 4.698 5.222 4.698C4.802 4.698 4.41467 4.78667 4.06 4.964C3.71467 5.14133 3.416 5.384 3.164 5.692C2.92133 6 2.73 6.35467 2.59 6.756C2.45933 7.15733 2.394 7.582 2.394 8.03C2.394 8.49667 2.46867 8.93533 2.618 9.346C2.76733 9.74733 2.97267 10.0973 3.234 10.396C3.49533 10.6947 3.80333 10.9327 4.158 11.11C4.522 11.278 4.914 11.362 5.334 11.362C6.29533 11.362 7.16333 10.9093 7.938 10.004V9.304H5.936V7.89H9.534V13H7.938V11.88ZM15.9825 13.07C15.2545 13.07 14.5919 12.93 13.9945 12.65C13.4065 12.3607 12.8979 11.9827 12.4685 11.516C12.0485 11.04 11.7219 10.4987 11.4885 9.892C11.2552 9.28533 11.1385 8.66467 11.1385 8.03C11.1385 7.36733 11.2599 6.73267 11.5025 6.126C11.7545 5.51933 12.0952 4.98267 12.5245 4.516C12.9632 4.04933 13.4812 3.68067 14.0785 3.41C14.6759 3.13 15.3245 2.99 16.0245 2.99C16.7432 2.99 17.3965 3.13933 17.9845 3.438C18.5819 3.72733 19.0905 4.11 19.5105 4.586C19.9305 5.062 20.2572 5.60333 20.4905 6.21C20.7239 6.81667 20.8405 7.43267 20.8405 8.058C20.8405 8.72067 20.7192 9.35533 20.4765 9.962C20.2339 10.5593 19.8979 11.0913 19.4685 11.558C19.0392 12.0153 18.5259 12.384 17.9285 12.664C17.3312 12.9347 16.6825 13.07 15.9825 13.07ZM13.0985 8.03C13.0985 8.45933 13.1639 8.87467 13.2945 9.276C13.4252 9.67733 13.6119 10.032 13.8545 10.34C14.1065 10.648 14.4099 10.8953 14.7645 11.082C15.1285 11.2687 15.5392 11.362 15.9965 11.362C16.4632 11.362 16.8739 11.2687 17.2285 11.082C17.5925 10.886 17.8959 10.6293 18.1385 10.312C18.3905 9.99467 18.5772 9.64 18.6985 9.248C18.8292 8.84667 18.8945 8.44067 18.8945 8.03C18.8945 7.60067 18.8245 7.18533 18.6845 6.784C18.5539 6.38267 18.3625 6.028 18.1105 5.72C17.8679 5.412 17.5645 5.16933 17.2005 4.992C16.8459 4.80533 16.4445 4.712 15.9965 4.712C15.5299 4.712 15.1145 4.81 14.7505 5.006C14.3865 5.19267 14.0832 5.44467 13.8405 5.762C13.5979 6.07 13.4112 6.42467 13.2805 6.826C13.1592 7.218 13.0985 7.61933 13.0985 8.03ZM27.1246 13.07C26.3966 13.07 25.7339 12.93 25.1366 12.65C24.5486 12.3607 24.0399 11.9827 23.6106 11.516C23.1906 11.04 22.8639 10.4987 22.6306 9.892C22.3972 9.28533 22.2806 8.66467 22.2806 8.03C22.2806 7.36733 22.4019 6.73267 22.6446 6.126C22.8966 5.51933 23.2372 4.98267 23.6666 4.516C24.1052 4.04933 24.6232 3.68067 25.2206 3.41C25.8179 3.13 26.4666 2.99 27.1666 2.99C27.8852 2.99 28.5386 3.13933 29.1266 3.438C29.7239 3.72733 30.2326 4.11 30.6526 4.586C31.0726 5.062 31.3992 5.60333 31.6326 6.21C31.8659 6.81667 31.9826 7.43267 31.9826 8.058C31.9826 8.72067 31.8612 9.35533 31.6186 9.962C31.3759 10.5593 31.0399 11.0913 30.6106 11.558C30.1812 12.0153 29.6679 12.384 29.0706 12.664C28.4732 12.9347 27.8246 13.07 27.1246 13.07ZM24.2406 8.03C24.2406 8.45933 24.3059 8.87467 24.4366 9.276C24.5672 9.67733 24.7539 10.032 24.9966 10.34C25.2486 10.648 25.5519 10.8953 25.9066 11.082C26.2706 11.2687 26.6812 11.362 27.1386 11.362C27.6052 11.362 28.0159 11.2687 28.3706 11.082C28.7346 10.886 29.0379 10.6293 29.2806 10.312C29.5326 9.99467 29.7192 9.64 29.8406 9.248C29.9712 8.84667 30.0366 8.44067 30.0366 8.03C30.0366 7.60067 29.9666 7.18533 29.8266 6.784C29.6959 6.38267 29.5046 6.028 29.2526 5.72C29.0099 5.412 28.7066 5.16933 28.3426 4.992C27.9879 4.80533 27.5866 4.712 27.1386 4.712C26.6719 4.712 26.2566 4.81 25.8926 5.006C25.5286 5.19267 25.2252 5.44467 24.9826 5.762C24.7399 6.07 24.5532 6.42467 24.4226 6.826C24.3012 7.218 24.2406 7.61933 24.2406 8.03ZM40.9266 11.88C40.1333 12.6733 39.2093 13.07 38.1546 13.07C37.5013 13.07 36.8853 12.9393 36.3066 12.678C35.7373 12.4167 35.2379 12.0573 34.8086 11.6C34.3886 11.1427 34.0526 10.606 33.8006 9.99C33.5579 9.36467 33.4366 8.69267 33.4366 7.974C33.4366 7.29267 33.5579 6.65333 33.8006 6.056C34.0526 5.44933 34.3933 4.922 34.8226 4.474C35.2613 4.01667 35.7746 3.65733 36.3626 3.396C36.9506 3.12533 37.5899 2.99 38.2806 2.99C39.2139 2.99 40.0119 3.186 40.6746 3.578C41.3466 3.97 41.8506 4.49733 42.1866 5.16L40.7446 6.224C40.4926 5.72933 40.1379 5.35133 39.6806 5.09C39.2326 4.82867 38.7426 4.698 38.2106 4.698C37.7906 4.698 37.4033 4.78667 37.0486 4.964C36.7033 5.14133 36.4046 5.384 36.1526 5.692C35.9099 6 35.7186 6.35467 35.5786 6.756C35.4479 7.15733 35.3826 7.582 35.3826 8.03C35.3826 8.49667 35.4573 8.93533 35.6066 9.346C35.7559 9.74733 35.9613 10.0973 36.2226 10.396C36.4839 10.6947 36.7919 10.9327 37.1466 11.11C37.5106 11.278 37.9026 11.362 38.3226 11.362C39.2839 11.362 40.1519 10.9093 40.9266 10.004V9.304H38.9246V7.89H42.5226V13H40.9266V11.88ZM44.7291 13V3.06H46.6611V11.306H51.7291V13H44.7291ZM60.3669 11.306V13H53.4649V3.06H60.2409V4.754H55.3969V7.148H59.5829V8.716H55.3969V11.306H60.3669ZM66.3564 13V3.06H70.5704C71.0277 3.06 71.4477 3.158 71.8304 3.354C72.2224 3.54067 72.5584 3.79267 72.8384 4.11C73.1184 4.418 73.3377 4.77267 73.4964 5.174C73.6551 5.566 73.7344 5.96267 73.7344 6.364C73.7344 6.784 73.6597 7.19467 73.5104 7.596C73.3611 7.988 73.1511 8.338 72.8804 8.646C72.6097 8.954 72.2831 9.20133 71.9004 9.388C71.5177 9.57467 71.0977 9.668 70.6404 9.668H68.2884V13H66.3564ZM68.2884 7.974H70.5284C70.8831 7.974 71.1771 7.82933 71.4104 7.54C71.6531 7.25067 71.7744 6.85867 71.7744 6.364C71.7744 6.112 71.7371 5.888 71.6624 5.692C71.5877 5.48667 71.4897 5.314 71.3684 5.174C71.2471 5.034 71.1024 4.93133 70.9344 4.866C70.7757 4.79133 70.6124 4.754 70.4444 4.754H68.2884V7.974ZM75.6391 13V3.06H77.5711V11.306H82.6391V13H75.6391ZM87.2028 3.06H88.9108L92.6908 13H90.7028L89.7788 10.522H86.3068L85.3968 13H83.4088L87.2028 3.06ZM89.4288 9.164L88.0568 5.258L86.6288 9.164H89.4288ZM94.299 3.06L96.749 7.848L99.241 3.06H101.327L97.715 9.528V13H95.797V9.5L92.199 3.06H94.299ZM112.348 5.664C112.283 5.59867 112.161 5.51 111.984 5.398C111.816 5.286 111.606 5.17867 111.354 5.076C111.111 4.964 110.845 4.87067 110.556 4.796C110.267 4.72133 109.973 4.684 109.674 4.684C109.142 4.684 108.745 4.782 108.484 4.978C108.223 5.174 108.092 5.44933 108.092 5.804C108.092 6.00933 108.139 6.182 108.232 6.322C108.335 6.45267 108.479 6.56933 108.666 6.672C108.853 6.77467 109.086 6.868 109.366 6.952C109.655 7.036 109.987 7.12467 110.36 7.218C110.845 7.34867 111.284 7.48867 111.676 7.638C112.077 7.78733 112.413 7.974 112.684 8.198C112.964 8.422 113.179 8.69267 113.328 9.01C113.477 9.318 113.552 9.70067 113.552 10.158C113.552 10.69 113.449 11.1473 113.244 11.53C113.048 11.9033 112.777 12.2067 112.432 12.44C112.096 12.6733 111.704 12.846 111.256 12.958C110.817 13.0607 110.355 13.112 109.87 13.112C109.123 13.112 108.386 13 107.658 12.776C106.93 12.552 106.277 12.2347 105.698 11.824L106.552 10.158C106.636 10.242 106.785 10.354 107 10.494C107.224 10.6247 107.485 10.76 107.784 10.9C108.083 11.0307 108.414 11.1427 108.778 11.236C109.142 11.3293 109.515 11.376 109.898 11.376C110.962 11.376 111.494 11.0353 111.494 10.354C111.494 10.1393 111.433 9.95733 111.312 9.808C111.191 9.65867 111.018 9.528 110.794 9.416C110.57 9.304 110.299 9.20133 109.982 9.108C109.665 9.01467 109.31 8.912 108.918 8.8C108.442 8.66933 108.027 8.52933 107.672 8.38C107.327 8.22133 107.037 8.03933 106.804 7.834C106.571 7.61933 106.393 7.37667 106.272 7.106C106.16 6.826 106.104 6.49467 106.104 6.112C106.104 5.608 106.197 5.16 106.384 4.768C106.571 4.376 106.827 4.04933 107.154 3.788C107.49 3.52667 107.877 3.33067 108.316 3.2C108.755 3.06 109.226 2.99 109.73 2.99C110.43 2.99 111.074 3.102 111.662 3.326C112.25 3.54067 112.763 3.79733 113.202 4.096L112.348 5.664ZM122.938 4.754H119.76V13H117.842V4.754H114.664V3.06H122.938V4.754ZM128.509 13.07C127.781 13.07 127.118 12.93 126.521 12.65C125.933 12.3607 125.424 11.9827 124.995 11.516C124.575 11.04 124.248 10.4987 124.015 9.892C123.781 9.28533 123.665 8.66467 123.665 8.03C123.665 7.36733 123.786 6.73267 124.029 6.126C124.281 5.51933 124.621 4.98267 125.051 4.516C125.489 4.04933 126.007 3.68067 126.605 3.41C127.202 3.13 127.851 2.99 128.551 2.99C129.269 2.99 129.923 3.13933 130.511 3.438C131.108 3.72733 131.617 4.11 132.037 4.586C132.457 5.062 132.783 5.60333 133.017 6.21C133.25 6.81667 133.367 7.43267 133.367 8.058C133.367 8.72067 133.245 9.35533 133.003 9.962C132.76 10.5593 132.424 11.0913 131.995 11.558C131.565 12.0153 131.052 12.384 130.455 12.664C129.857 12.9347 129.209 13.07 128.509 13.07ZM125.625 8.03C125.625 8.45933 125.69 8.87467 125.821 9.276C125.951 9.67733 126.138 10.032 126.381 10.34C126.633 10.648 126.936 10.8953 127.291 11.082C127.655 11.2687 128.065 11.362 128.523 11.362C128.989 11.362 129.4 11.2687 129.755 11.082C130.119 10.886 130.422 10.6293 130.665 10.312C130.917 9.99467 131.103 9.64 131.225 9.248C131.355 8.84667 131.421 8.44067 131.421 8.03C131.421 7.60067 131.351 7.18533 131.211 6.784C131.08 6.38267 130.889 6.028 130.637 5.72C130.394 5.412 130.091 5.16933 129.727 4.992C129.372 4.80533 128.971 4.712 128.523 4.712C128.056 4.712 127.641 4.81 127.277 5.006C126.913 5.19267 126.609 5.44467 126.367 5.762C126.124 6.07 125.937 6.42467 125.807 6.826C125.685 7.218 125.625 7.61933 125.625 8.03ZM135.409 13V3.06H139.805C140.262 3.06 140.682 3.158 141.065 3.354C141.457 3.54067 141.793 3.79267 142.073 4.11C142.353 4.418 142.572 4.77267 142.731 5.174C142.889 5.566 142.969 5.96267 142.969 6.364C142.969 7.008 142.805 7.596 142.479 8.128C142.161 8.65067 141.727 9.02867 141.177 9.262L143.445 13H141.275L139.245 9.668H137.341V13H135.409ZM137.341 7.974H139.763C139.94 7.974 140.103 7.932 140.253 7.848C140.411 7.764 140.547 7.652 140.659 7.512C140.771 7.36267 140.859 7.19 140.925 6.994C140.99 6.798 141.023 6.588 141.023 6.364C141.023 6.13067 140.985 5.916 140.911 5.72C140.836 5.524 140.733 5.356 140.603 5.216C140.481 5.06667 140.337 4.95467 140.169 4.88C140.01 4.796 139.847 4.754 139.679 4.754H137.341V7.974ZM152.181 11.306V13H145.279V3.06H152.055V4.754H147.211V7.148H151.397V8.716H147.211V11.306H152.181Z" transform="translate(111 39)" fill="white"/>
<path d="M34.5268 18.1785C28.3858 14.7349 18.5294 9.20514 3.24126 0.622745C2.21054 -0.0597347 1.02463 -0.149172 0 0.198537L26.2301 26.4967L34.5268 18.1785Z" transform="translate(32.5206 14.0012)" fill="#32BBFF"/>
<path d="M2.52059 0C2.32855 0.065215 2.14167 0.143887 1.96295 0.238915C0.831455 0.852556 0 2.03336 0 3.52678V49.0696C0 50.563 0.831351 51.7438 1.96295 52.3574C2.14136 52.4523 2.32813 52.5313 2.51997 52.5969L28.7507 26.2982L2.52059 0Z" transform="translate(30 14.1998)" fill="#32BBFF"/>
<path d="M26.2307 0L0 26.2987C1.02494 26.649 2.21085 26.5664 3.24188 25.874C18.0681 17.5503 27.8134 12.0861 34.0254 8.61314C34.1984 8.51573 34.3678 8.4205 34.5353 8.32619L26.2307 0Z" transform="translate(32.52 40.498)" fill="#32BBFF"/>
<path d="M0 0V22.7714C0 24.2648 0.831351 25.4456 1.96295 26.0592C2.14136 26.1541 2.32813 26.2331 2.51997 26.2987L28.7507 0H0Z" transform="translate(30 40.498)" fill="#2C9FD9"/>
<path d="M3.7989 0.623984C2.5749 -0.186338 1.13149 -0.163254 0 0.438794L26.3896 26.897L35.0843 18.1798C28.9435 14.7361 19.087 9.20638 3.7989 0.623984Z" transform="translate(31.963 14)" fill="#29CC5E"/>
<path d="M26.3898 0L0 26.4581C1.1316 27.0601 2.5749 27.0949 3.7989 26.2729C18.6251 17.9492 28.3704 12.485 34.5824 9.01209C34.7554 8.91468 34.9248 8.81944 35.0923 8.72514L26.3898 0Z" transform="translate(31.963 40.099)" fill="#D93F21"/>
<path d="M20.0452 8.60455C20.0452 7.34269 19.4102 6.06924 18.1515 5.36305C18.1515 5.36305 15.7975 4.04623 8.58226 0L0 8.60455L8.59063 17.2176C15.7267 13.2004 18.1514 11.8459 18.1514 11.8459C19.4102 11.1399 20.0452 9.8664 20.0452 8.60455Z" transform="translate(57.9548 31.8934)" fill="#FFD500"/>
<path d="M18.1515 3.2415C19.4102 2.53531 20.0452 1.26186 20.0452 0H0L8.59063 8.61303C15.7268 4.596 18.1515 3.2415 18.1515 3.2415Z" transform="translate(57.9548 40.498)" fill="#FFAA00"/>
</svg>
